<svg xmlns="http://www.w3.org/2000/svg" viewBox="0 0 1000 560" role="img" aria-labelledby="title desc"><title id="title">Mesh Deck: panoramica proposta</title><desc id="desc">Rail per attività a sinistra, stato radio e dashboard con attività recente e azioni rapide.</desc><rect width="1000" height="560" rx="14" fill="#09131b"/><rect x="10" y="10" width="980" height="540" rx="10" fill="#101f29" stroke="#34545b"/><rect x="10" y="10" width="185" height="540" rx="10" fill="#0c1821"/><g font-family="sans-serif"><text x="27" y="47" fill="#91f3d0" font-size="20" font-weight="bold">mesh-deck</text><text x="28" y="80" fill="#91a8b2" font-size="11">NAVIGAZIONE</text><rect x="19" y="96" width="167" height="40" rx="7" fill="#17483f"/><text x="34" y="122" fill="#e3fff1" font-size="14">Panoramica</text><text x="34" y="169" fill="#d2e4e6" font-size="14">Messaggi</text><text x="34" y="210" fill="#d2e4e6" font-size="14">Nodi</text><text x="34" y="251" fill="#d2e4e6" font-size="14">Topologia</text><text x="34" y="292" fill="#d2e4e6" font-size="14">Attività</text><text x="34" y="333" fill="#d2e4e6" font-size="14">Impostazioni</text><line x1="27" y1="475" x2="177" y2="475" stroke="#34545b"/><text x="34" y="505" fill="#b4d6ce" font-size="13">Comandi  Ctrl+P</text><text x="216" y="49" fill="#f0f7f5" font-size="24" font-weight="bold">Panoramica</text><rect x="743" y="25" width="222" height="34" rx="17" fill="#16473f"/><circle cx="761" cy="42" r="5" fill="#83edb8"/><text x="774" y="47" fill="#e3fff1" font-size="12">Radio connessa · EU_868</text><rect x="215" y="78" width="237" height="116" rx="9" fill="#172c36" stroke="#34545b"/><text x="231" y="107" fill="#91aeb7" font-size="12">DISPOSITIVO</text><text x="231" y="143" fill="#f0f7f5" font-size="18">Nodo locale</text><text x="231" y="173" fill="#9dd8ca" font-size="12">Apri dettagli →</text><rect x="463" y="78" width="237" height="116" rx="9" fill="#172c36" stroke="#34545b"/><text x="479" y="107" fill="#91aeb7" font-size="12">RETE</text><text x="479" y="143" fill="#f0f7f5" font-size="18">Nodi rilevati</text><text x="479" y="173" fill="#9dd8ca" font-size="12">Esplora nodi →</text><rect x="711" y="78" width="254" height="116" rx="9" fill="#172c36" stroke="#34545b"/><text x="727" y="107" fill="#91aeb7" font-size="12">MESSAGGI</text><text x="727" y="143" fill="#f0f7f5" font-size="18">Conversazioni</text><text x="727" y="173" fill="#9dd8ca" font-size="12">Apri messaggi →</text><rect x="215" y="207" width="482" height="258" rx="9" fill="#142630" stroke="#34545b"/><text x="231" y="238" fill="#f0f7f5" font-size="17">Attività recente</text><line x1="231" y1="253" x2="679" y2="253" stroke="#34545b"/><text x="231" y="290" fill="#d2e4e6" font-size="13">●  Messaggio ricevuto · Canale primario</text><text x="231" y="331" fill="#d2e4e6" font-size="13">●  Nodo rilevato · Apri dettaglio</text><text x="231" y="372" fill="#d2e4e6" font-size="13">●  Radio connessa · Apri diagnostica</text><text x="231" y="437" fill="#9dd8ca" font-size="12">Apri attività →</text><rect x="711" y="207" width="254" height="258" rx="9" fill="#142630" stroke="#34545b"/><text x="727" y="238" fill="#f0f7f5" font-size="17">Azioni rapide</text><rect x="727" y="260" width="222" height="40" rx="6" fill="#1e594d"/><text x="743" y="286" fill="#e3fff1" font-size="13">Apri messaggi</text><rect x="727" y="310" width="222" height="40" rx="6" fill="#223943"/><text x="743" y="336" fill="#e3fff1" font-size="13">Esplora nodi</text><rect x="727" y="360" width="222" height="40" rx="6" fill="#223943"/><text x="743" y="386" fill="#e3fff1" font-size="13">Apri comandi</text><text x="216" y="510" fill="#91aeb7" font-size="12">Mockup concettuale · dati illustrativi · click e tastiera</text></g></svg>
